<?xml version="1.0" encoding="UTF-8" standalone="no"?><!DOCTYPE svg PUBLIC "-//W3C//DTD SVG 1.1//EN" "http://www.w3.org/Graphics/SVG/1.1/DTD/svg11.dtd"><svg width="100%" height="100%" viewBox="0 0 753 753" version="1.1" xmlns="http://www.w3.org/2000/svg" xmlns:xlink="http://www.w3.org/1999/xlink" xml:space="preserve" xmlns:serif="http://www.serif.com/" style="fill-rule:evenodd;clip-rule:evenodd;stroke-linejoin:round;stroke-miterlimit:2;"><g id="Favicon"><path d="M752.5,147.228l0,458.043c0,81.257 -65.971,147.228 -147.228,147.228l-458.043,0c-81.257,0 -147.228,-65.971 -147.228,-147.228l0,-458.043c0,-81.257 65.971,-147.228 147.228,-147.228l458.043,0c81.257,0 147.228,65.971 147.228,147.228Z" style="fill:#141414;"/><g id="Texto"><path d="M331.689,180.602l0,279.419c0,17.268 -3.027,32.792 -9.082,46.57c-6.055,13.778 -14.664,25.443 -25.828,34.996c-11.164,9.553 -24.598,16.993 -40.304,22.32c-15.705,5.328 -33.208,7.991 -52.508,7.991c-37.465,0 -66.889,-9.185 -88.27,-27.556c-21.382,-18.371 -35.1,-42.804 -41.155,-73.299l69.822,-14.329c3.406,16.166 9.556,29.485 18.449,39.956c8.893,10.471 22.612,15.707 41.155,15.707c17.03,0 30.086,-4.868 39.168,-14.605c9.082,-9.736 13.624,-25.076 13.624,-46.019l0,-211.631l-133.967,0l0,-59.521l208.897,0Z" style="fill:#fff;fill-rule:nonzero;"/><path d="M410.025,180.602l137.94,0c37.465,0 66.321,9.094 86.567,27.281c20.246,18.187 30.37,42.896 30.37,74.126c0,22.045 -5.582,39.681 -16.746,52.908c-11.164,13.227 -26.964,22.78 -47.399,28.658l0,2.756c23.842,5.511 42.669,15.523 56.482,30.036c13.813,14.513 20.719,34.996 20.719,61.45c0,16.166 -2.744,30.771 -8.231,43.814c-5.487,13.043 -13.245,24.341 -23.274,33.894c-10.029,9.553 -22.139,16.901 -36.33,22.045c-14.191,5.144 -30.18,7.716 -47.967,7.716l-152.132,0l0,-384.683Zm129.425,332.326c20.814,0 36.425,-3.766 46.832,-11.298c10.407,-7.532 15.611,-20.483 15.611,-38.854l0,-18.187c0,-18.003 -5.204,-30.771 -15.611,-38.303c-10.407,-7.532 -26.018,-11.298 -46.832,-11.298l-56.766,0l0,117.94l56.766,0Zm-9.65,-168.092c20.057,0 34.911,-3.49 44.561,-10.471c9.65,-6.981 14.475,-19.106 14.475,-36.374l0,-18.187c0,-17.268 -4.825,-29.393 -14.475,-36.374c-9.65,-6.981 -24.504,-10.471 -44.561,-10.471l-47.115,0l0,111.878l47.115,0Z" style="fill:#fff;fill-rule:nonzero;"/></g></g></svg>