<?xml version="1.0" encoding="UTF-8" standalone="no"?><!DOCTYPE svg PUBLIC "-//W3C//DTD SVG 1.1//EN" "http://www.w3.org/Graphics/SVG/1.1/DTD/svg11.dtd"><svg width="100%" height="100%" viewBox="0 0 1183 860" version="1.1" xmlns="http://www.w3.org/2000/svg" xmlns:xlink="http://www.w3.org/1999/xlink" xml:space="preserve" xmlns:serif="http://www.serif.com/" style="fill-rule:evenodd;clip-rule:evenodd;stroke-linejoin:round;stroke-miterlimit:2;"><g id="Camada4"><path d="M1182.5,129l0,602c0,71.197 -57.803,129 -129,129l-924.5,0c-71.197,0 -129,-57.803 -129,-129l0,-602c0,-71.197 57.803,-129 129,-129l924.5,0c71.197,0 129,57.803 129,129Z" style="fill:#e6e6e6;"/><g><g><path d="M543.618,220.869l0,298.674c0,18.458 -3.236,35.051 -9.708,49.779c-6.472,14.728 -15.675,27.197 -27.608,37.408c-11.933,10.211 -26.294,18.164 -43.081,23.859c-16.787,5.695 -35.496,8.542 -56.127,8.542c-40.047,0 -71.498,-9.818 -94.353,-29.455c-22.855,-19.637 -37.519,-45.753 -43.991,-78.35l74.633,-15.317c3.641,17.28 10.214,31.517 19.72,42.71c9.506,11.193 24.17,16.789 43.991,16.789c18.203,0 32.159,-5.204 41.867,-15.611c9.708,-10.407 14.563,-26.804 14.563,-49.19l0,-226.215l-143.198,0l0,-63.623l223.293,0Z" style="fill:#666;"/><path d="M627.353,220.869l147.446,0c40.047,0 70.891,9.72 92.533,29.16c21.642,19.44 32.462,45.852 32.462,79.234c0,23.564 -5.967,42.415 -17.9,56.554c-11.933,14.138 -28.822,24.349 -50.666,30.633l0,2.946c25.484,5.891 45.609,16.593 60.374,32.106c14.765,15.513 22.147,37.408 22.147,65.685c0,17.28 -2.933,32.891 -8.798,46.833c-5.865,13.942 -14.158,26.019 -24.878,36.23c-10.72,10.211 -23.664,18.066 -38.833,23.564c-15.169,5.498 -32.26,8.247 -51.272,8.247l-162.615,0l0,-411.192Zm138.344,355.227c22.248,0 38.935,-4.026 50.059,-12.077c11.124,-8.051 16.686,-21.895 16.686,-41.532l0,-19.44c0,-19.244 -5.562,-32.891 -16.686,-40.942c-11.124,-8.051 -27.81,-12.077 -50.059,-12.077l-60.677,0l0,126.067l60.677,0Zm-10.315,-179.676c21.439,0 37.317,-3.731 47.632,-11.193c10.315,-7.462 15.473,-20.422 15.473,-38.881l0,-19.44c0,-18.458 -5.158,-31.419 -15.473,-38.881c-10.315,-7.462 -26.192,-11.193 -47.632,-11.193l-50.362,0l0,119.587l50.362,0Z" style="fill:#666;"/></g></g></g></svg>